# xmcd
#
# Track frame offsets:
#	150
#	16234
#	28517
#	41512
#	52545
#	65400
#	78537
#	88922
#	98502
#	109610
#	120925
#	135420
#	153292
#	166820
#
# Disc length: 2405
#
# Revision: 1
# Processed by: cddbd v1.5.1PL0 Copyright (c) Steve Scherf et al.
# Submitted via: inCDius 1.1
# Normalized: r0:DSETVAR1,TDELIM( - )
#
DISCID=9509630e
DTITLE=Various Artist - Soulful Grooves
DYEAR=1900
DGENRE=
TTITLE0=Night Train - James Brown
TTITLE1=Cleo's Mood - Junior Walker and the All-Stars
TTITLE2=Hole in the Wall - The Packers
TTITLE3=I've Got a Woman - Jimmy McGriff
TTITLE4=Soul Twist - King Curtis and the Noble Knights
TTITLE5=Baby, Scratch My Back - Slim Harpo
TTITLE6=Misirlou - Earl Washington
TTITLE7=Wiggle Wobble - Les Cooper and the Soul Rockers
TTITLE8=Gonzo - James Booker
TTITLE9=Jaywalking - The Upsetters
TTITLE10=The 'In' Crowd - Ramsey Lewis Trio
TTITLE11=Hang 'Em High - Booker T. and the MGs
TTITLE12=Memphis Soul Stew - King Curtis
TTITLE13=Soulful Strut - Young-Holt Unlimited
EXTD=
EXTT0=
EXTT1=
EXTT2=
EXTT3=
EXTT4=
EXTT5=
EXTT6=
EXTT7=
EXTT8=
EXTT9=
EXTT10=
EXTT11=
EXTT12=
EXTT13=
PLAYORDER=
